<svg id="Layer_1" data-name="Layer 1" xmlns="http://www.w3.org/2000/svg" viewBox="0 0 100 100"><defs><style>.cls-1{fill:#fff;}.cls-2{fill:#2c61af;}.cls-3{fill:#232323;}</style></defs><path class="cls-1" d="M10.7,70.17l-.08.15-.31-.23-1.18-.24-.2.05a9.07,9.07,0,0,1-1.23.24l-.53.07L6.68,70A3.84,3.84,0,0,1,5,68.3l-.63-1.17.47-.47a16.88,16.88,0,0,1-.2-1.7c-.07-.92-.12-2.12-.16-3.57-.07-1.88-.15-3.29-.24-4.19V55.65c.1-5,.23-9.17.38-12.33a77.05,77.05,0,0,1,.91-8.87L5.64,34l.29-.36a2.45,2.45,0,0,1,2-.93h.26l.17-.17,1,.35c.15.05.32.12.52.21h.86l.53.63a6.63,6.63,0,0,0,.52.54l.19.17h1.35a14.57,14.57,0,0,1,3.2.28h.11a3.05,3.05,0,0,1,.6.06h0a10.18,10.18,0,0,1,5.55,2.95c1.13,1.11,1.68,2.91,1.68,5.48a32.12,32.12,0,0,1-.16,3.25l0,.32-.11.21s0,.12,0,.25a3.81,3.81,0,0,1-.27,1c0,.07,0,.13,0,.19V49l-.48.47v0a6,6,0,0,1-.5,1.13,4.11,4.11,0,0,0-.33.64l-.18.55-.36.26-.19.54-.53.32a1.85,1.85,0,0,0-.25.32A5.46,5.46,0,0,1,20,54.54l-.16.13-.19.09a.78.78,0,0,0-.34.25l-.32.56-.62.22a.41.41,0,0,0-.16.09l-.63,1-.71-.12-.3.21-.45.3h-.32l-.23.1-.91,1.83-.93-.91c-.22.1-.45.21-.7.31l-.21.08c0,.49,0,1,0,1.64,0,1.44,0,2.54.1,3.26L13,64.89l.56,1.1-1,.21.06.69-.68.27a3.78,3.78,0,0,1-.32,1.24l-.22.45.38,1.52Zm2.72-29.64c-.15,1.47-.27,3.16-.36,5-.09,2.08-.17,4.08-.23,6l.17,0c.34-.26.76-.56,1.28-.91l.6-.44c.31-.24.64-.52,1-.82a2.34,2.34,0,0,0,.55-.7l.4-.74.32-.06a3.08,3.08,0,0,1,.24-.26,14.53,14.53,0,0,0,1.32-2.5,6.69,6.69,0,0,0,.46-2.46l0-.35c-.67-1.15-2.36-1.74-5-1.74Z"/><path class="cls-2" d="M9.93,34.9a7.12,7.12,0,0,0,.66.69,8.57,8.57,0,0,1,.66.69c.44,0,1.14-.05,2.09-.05a11.54,11.54,0,0,1,3.05.3,1.46,1.46,0,0,1,.51,0A8.43,8.43,0,0,1,21.54,39q1.17,1.13,1.17,4.23a28.16,28.16,0,0,1-.15,3,2.62,2.62,0,0,0-.18.72,1.64,1.64,0,0,1-.28.76.3.3,0,0,1,0,.23.68.68,0,0,0-.05.23v.1a1,1,0,0,0-.18.23,1.3,1.3,0,0,1-.18.23,2.93,2.93,0,0,1-.41,1,6.44,6.44,0,0,0-.45.94,1.37,1.37,0,0,0-.51.72,2.58,2.58,0,0,0-.79.84,4.46,4.46,0,0,1-.69.84,2.45,2.45,0,0,0-1.12,1,2,2,0,0,0-1.07.81.85.85,0,0,0-.64.21l-.48.35a1.19,1.19,0,0,0-.51.15,1.08,1.08,0,0,1-.46.16,1.82,1.82,0,0,1-.25.2.68.68,0,0,0-.21.2l-.1-.1s-.08,0-.15,0a5.71,5.71,0,0,1-1.53.84c-.65.26-1.1.45-1.38.59,0,.68.06,1.61.06,2.8,0,1.5,0,2.63.1,3.41-.17.07-.26.28-.26.61a1,1,0,0,0,.05.36c-.17,0-.25.17-.25.41l0,.61a.69.69,0,0,0-.38.43,2.87,2.87,0,0,0-.18.79,2.14,2.14,0,0,1-.15.66c-.14-.1-.23-.08-.28.06s-.13.2-.23.2-.19.07-.16.2a2.24,2.24,0,0,0-.84.1,7.77,7.77,0,0,1-1,.21,2.11,2.11,0,0,1-.87-.92l.21-.2a15.9,15.9,0,0,1-.36-2.42c-.07-.9-.12-2.06-.15-3.49C6.24,59.4,6.16,58,6.05,57V55.69c.11-5,.23-9.12.39-12.28a73.43,73.43,0,0,1,.89-8.66.66.66,0,0,1,.56-.25,1.22,1.22,0,0,1,.41.07,1,1,0,0,0,.35.08.21.21,0,0,0,.15,0,2.14,2.14,0,0,1,.41.18,1.31,1.31,0,0,0,.56.12Zm1,19.61A6.66,6.66,0,0,0,12.12,54a3.5,3.5,0,0,1,1.17-.5.14.14,0,0,0,.07-.16c0-.07,0-.1,0-.1a.1.1,0,0,1,.08,0s0,.05.12.05a13,13,0,0,1,1.68-1.27c.11-.07.33-.24.69-.51s.72-.58,1.1-.92A4.29,4.29,0,0,0,18,49.47a.58.58,0,0,0,.41-.33c.1-.19.2-.3.31-.33a18,18,0,0,0,1.65-3.08,8.46,8.46,0,0,0,.59-3.19l-.05-.76c-.89-2-3.14-3.06-6.78-3.06-.58,0-1.34,0-2.29.11q-.36,2.74-.53,6.67c-.12,2.61-.22,5.06-.28,7.33ZM13,53.44s0,.05,0,0,0,0-.08,0S13,53.44,13,53.44Z"/><path class="cls-1" d="M26.64,69.65l-.81-.14-.3-.19a4.67,4.67,0,0,1-1.77-1.83l-.12-.23a2.56,2.56,0,0,0-.05-.27l-.22-.24.05-.79a8.46,8.46,0,0,0,0-1.1c0-.37,0-.7,0-1V62.71a14.21,14.21,0,0,1,0-1.45c.07-1.76.28-4.36.62-7.74.13-1.36.3-3.26.5-5.65l.1-1.86c.11-1.86.22-3.33.34-4.52a32.22,32.22,0,0,1,.5-3.27l-.4-.83.72-.72a3.16,3.16,0,0,1,.25-.6l0-.08a2,2,0,0,1,.21-.82v-.24l.22-.22.26-.53h.29a3.89,3.89,0,0,1,.52-.34l.47-.47h.74A11,11,0,0,1,32,33.8l.35.1.28.22a8,8,0,0,1,2.22,3,28.29,28.29,0,0,1,1.28,3.82l.43,1.43q.39-1.32.69-2.58l0-.13.6-1.48c.32-.85.6-1.53.85-2.09A6.28,6.28,0,0,1,40,34.2l.26-.26.3-.12.25-.23.3-.3.55-.18a1.78,1.78,0,0,1,.93-.25h.16l.16,0c.42.08.82.17,1.17.26l.85.26.16.05.14.08a12.16,12.16,0,0,1,1.85,1.2l.33.27.17.38a12.34,12.34,0,0,0,1.07,1.87l.31.45v.56c0,.91,0,1.59,0,2,0,2.18-.06,3.84-.16,5.08v.05c-.3,2.53-.5,5-.6,7.36s-.17,5.35-.2,8.9a23.92,23.92,0,0,1,.36,3.81v.22l-.06.21A9,9,0,0,1,48,67c-.1.25-.19.53-.29.8l-.33,1-.94.17-.22.27-.67.11a5.09,5.09,0,0,1-.69.05,5.48,5.48,0,0,1-1.5-.23,4.55,4.55,0,0,1-1.92-1.09l-.2-.2-.65-1.3-.39-.1V65.08c-.06-.18-.12-.36-.17-.56l0-.14-.67-.83.43-.85c0-.05,0-.25-.09-.75v0a11.89,11.89,0,0,1-.12-1.45,4.62,4.62,0,0,1,.06-.7l-.1-.32v-.23c0-.93,0-2,0-3.06s.07-1.74.07-2.16v0l.16-2.58v-.09a4,4,0,0,1-1.4,1.09l-.35.16h-.39a4.51,4.51,0,0,1-3.3-1.18,8.56,8.56,0,0,1-1.54-2.3c-.1,1.11-.16,2-.19,2.77l.18.88-.06.33c0,.07,0,.28-.08.82a7.55,7.55,0,0,1-.17,1.26c-.09,1-.17,2.38-.23,4.25v.11c0,.33-.07,1.08-.12,2.2s-.15,2.35-.29,3.42l-.05.35-.17.3a.87.87,0,0,0-.06.27,6.9,6.9,0,0,1-.2,1l-.17.51-.42.33c-.14.11-.35.3-.64.55a7.85,7.85,0,0,1-1.1.84l-.58.36-.62-.1a4.44,4.44,0,0,1-1,.12Z"/><path class="cls-2" d="M46.55,65.52a8.45,8.45,0,0,1-.26.81q-.15.4-.3.87a1.26,1.26,0,0,0-.77.35,3,3,0,0,1-1.37-.12,2.82,2.82,0,0,1-1.17-.64l-.46-.92c0-.1,0-.25,0-.46s-.09-.32-.23-.35,0-.1.08-.1.08,0,.08-.06a2,2,0,0,1-.39-.81,1.86,1.86,0,0,0-.33-.76,1.4,1.4,0,0,0,.11-.62,8.18,8.18,0,0,0-.11-1,10.31,10.31,0,0,1-.1-1.23,4.18,4.18,0,0,1,.1-.81l-.15-.51c0-.88,0-1.85,0-2.9s.07-1.8.07-2.25l.16-2.54L41.66,47c.07-1.06.13-1.92.2-2.6l.36-4.08c0-.13.07-.3.1-.51a4.43,4.43,0,0,0,0-.66l0-.41a1,1,0,0,0-.2.51l.05.21A3.53,3.53,0,0,0,41.61,41,38.1,38.1,0,0,0,40,45.7c-.14.44-.29.94-.46,1.48L39,49a1.83,1.83,0,0,0-.36.77,2.65,2.65,0,0,1-1.07,1,2.77,2.77,0,0,1-2-.66A7,7,0,0,1,34.22,48a10.47,10.47,0,0,0-.92-1.63.75.75,0,0,1,0-.2q0-.1,0-.15l-.76-1.79c-.48-1.08-.85-1.9-1.12-2.44a29.52,29.52,0,0,1-.1,3.34c-.1,1.17-.17,1.91-.21,2.21-.2,2-.32,3.52-.35,4.64l.15.76c0,.2-.07.54-.1,1a8.9,8.9,0,0,1-.15,1.1c-.11,1-.19,2.48-.26,4.48,0,.38-.08,1.14-.13,2.29s-.14,2.25-.28,3.26a2.7,2.7,0,0,0-.28.92,6.3,6.3,0,0,1-.12.71c-.17.14-.41.34-.72.62a6.4,6.4,0,0,1-.86.66,1.54,1.54,0,0,0-.64,0,2.75,2.75,0,0,1-.59.08l-.3,0a2.92,2.92,0,0,1-1.12-1.12,2.44,2.44,0,0,0-.15-.61,11.76,11.76,0,0,0,0-1.3c0-.36,0-.66,0-.89V62.71a11.44,11.44,0,0,1,.05-1.32c.06-1.73.27-4.3.61-7.69q.19-2,.51-5.71l.1-1.88c.1-1.8.21-3.28.33-4.43a31.86,31.86,0,0,1,.54-3.41,1.23,1.23,0,0,0-.06-.51s.07,0,.11,0,.06,0,.1-.08a1.49,1.49,0,0,1,.18-.73,2.85,2.85,0,0,1,.38-.59.25.25,0,0,0-.08-.18A.14.14,0,0,1,28,36c.13,0,.2-.1.2-.3a1.38,1.38,0,0,1,.36-.26,1.24,1.24,0,0,0,.35-.25,9.71,9.71,0,0,1,2.65.35,6.14,6.14,0,0,1,1.71,2.32,26.3,26.3,0,0,1,1.2,3.59l.61,2c.23.75.49,1.5.76,2.27a14.76,14.76,0,0,0,.87,2,3.22,3.22,0,0,0,.63-1.3c.16-.56.25-.91.28-1a8.75,8.75,0,0,1,.36-1.28c.41-1.32.76-2.61,1.07-3.87l.56-1.37c.31-.82.58-1.49.81-2a4.81,4.81,0,0,1,.92-1.35,1.7,1.7,0,0,0,.49-.3l.33-.31a1.85,1.85,0,0,1,.35-.1c.07-.07.12-.1.16-.1a10.19,10.19,0,0,1,1,.23c.31.08.56.16.77.23a10.38,10.38,0,0,1,1.58,1,13.68,13.68,0,0,0,1.22,2.14c0,.91,0,1.57-.05,2,0,2.14,0,3.81-.15,5-.31,2.58-.51,5.08-.62,7.49s-.17,5.45-.2,9.12A22.56,22.56,0,0,1,46.55,65.52Z"/><path class="cls-1" d="M64.93,69.49a6.7,6.7,0,0,1-1.77-.26L62,68.92l-.44-.13-.32-.33a8.16,8.16,0,0,1-1.38-1.93l-.14-.27,0-.3a34.36,34.36,0,0,1-.38-5.64V59.14l-.5.09a45.1,45.1,0,0,1-4.95.6c0,.25,0,.5-.05.76l-.15,1.88v0a42.31,42.31,0,0,0-.25,4.35v.33l-.12.31a2.93,2.93,0,0,1-3,1.81,5.91,5.91,0,0,1-1-.08L48.14,69l-.06-.26-.58-.12.06-1.53c.2-5.09.36-10.06.46-14.78v-.08c.21-3.16.4-5.55.57-7.29v-.11a16.09,16.09,0,0,1,3.8-8.4l0,0,.06,0A9.15,9.15,0,0,1,58,33.58h.16l1.42,0a7.5,7.5,0,0,1,2.54.5l.21.08.18.13a10.34,10.34,0,0,0,1.18.75l.23.12.63.63.82.23.29.88.31.27L66.73,39c.26.6.47,1.16.63,1.65l0,.12,0,.12A30.38,30.38,0,0,1,67.79,46a5.63,5.63,0,0,0,.12,1.12v.1a10.05,10.05,0,0,1,.12,1.27,2.51,2.51,0,0,1-.07.55,5.57,5.57,0,0,1,.07.83c0,.71,0,1.34-.06,1.9s-.07,1-.1,1.37l-.08.77a5.28,5.28,0,0,1,0,.59v.07L68,55l-.22.66a.91.91,0,0,1,0,.17l.15.24-.11.69a12.33,12.33,0,0,0-.13,1.79l0,2.57c0,.69,0,1.26-.06,1.72a6.6,6.6,0,0,1,.14,1.08c0,.42,0,.72,0,.94.07.91.11,1.59.11,2.06v.74l-.26.26v.62l-1,.49A3.86,3.86,0,0,1,64.93,69.49ZM54.34,52.83c0,.27,0,.51,0,.74A34.91,34.91,0,0,1,59.39,53c0-.85,0-1.53,0-2.08l0-4A44.52,44.52,0,0,0,59,39.33L58.82,39l-.29.13a9,9,0,0,1-1.32,1.19c-.25.33-.49.7-.74,1.09l0,0-.55.79c-.2.63-.45,1.54-.74,2.72l-.26,1.08a9.38,9.38,0,0,1-.09,1c-.05.44-.06.57-.06.58v.23a9.85,9.85,0,0,0-.14,1.94v.12a4,4,0,0,1-.14,1,.37.37,0,0,0,0,.11v.05Z"/><path class="cls-3" d="M61.47,65.67a33.12,33.12,0,0,1-.36-5.35V57.06c-.57.07-1.44.2-2.59.41a36.09,36.09,0,0,1-6.37.61c0,.71,0,1.5-.1,2.37l-.15,1.86c-.17,1.7-.26,3.21-.26,4.53q-.26.66-1.32.66a3.9,3.9,0,0,1-.67,0,.34.34,0,0,0-.3-.3q.3-7.7.46-14.83.3-4.64.56-7.23a14.18,14.18,0,0,1,3.36-7.49,7.48,7.48,0,0,1,4.43-2.24l1.38,0a5.48,5.48,0,0,1,1.93.38,12.93,12.93,0,0,0,1.38.87l.45.45a1.54,1.54,0,0,0,.67.41,1.69,1.69,0,0,0,.51.77l.61,1.47c.23.55.42,1,.56,1.48A29.09,29.09,0,0,1,66,46a7.59,7.59,0,0,0,.16,1.47,7.92,7.92,0,0,1,.1,1,.35.35,0,0,1-.05.18.27.27,0,0,0,0,.18,2,2,0,0,0,0,.46,3.15,3.15,0,0,1,.05.56c0,.68,0,1.27-.05,1.78s-.07,1-.1,1.33L66,54a1.6,1.6,0,0,1,.06.51,1.58,1.58,0,0,0,0,.51l-.16.46A1.24,1.24,0,0,1,66,56a.8.8,0,0,0,.08.51,12.49,12.49,0,0,0-.16,2.09l0,2.55a12.39,12.39,0,0,1-.1,1.88A3,3,0,0,1,66,64c0,.43,0,.74,0,.95.06.88.1,1.54.1,2l-.16.18a.59.59,0,0,0-.1.33,2.17,2.17,0,0,1-1,.26,4.78,4.78,0,0,1-1.29-.21l-1.1-.3A6.76,6.76,0,0,1,61.47,65.67Zm-.3-10.8c0-1.73,0-3,0-3.92l.05-4a45.37,45.37,0,0,0-.61-8.2A5.12,5.12,0,0,1,60.3,38c-.07-.1-.16-.23-.28-.38a3.46,3.46,0,0,0-.33-.38.37.37,0,0,1-.23-.11.5.5,0,0,0-.28-.1h0a3.33,3.33,0,0,0-.82.31,5.6,5.6,0,0,1-.81.35A7.19,7.19,0,0,1,56,39a17.24,17.24,0,0,0-1,1.48l-.66,1c-.24.68-.53,1.72-.87,3.11l-.3,1.27a7.41,7.41,0,0,1-.08,1,6.8,6.8,0,0,0-.07.82,12.75,12.75,0,0,0-.16,2.29,2,2,0,0,1-.07.53,2,2,0,0,0-.08.59l-.1,1.68c-.07,1.53-.14,2.53-.21,3,.89-.14,1.55-.26,2-.36a32.53,32.53,0,0,1,5.2-.61A9.67,9.67,0,0,1,61.17,54.87Z"/><path class="cls-1" d="M71.52,69.8l-.6-.12h0a8.93,8.93,0,0,1-.92.19l-.54.07L69,69.69a3.19,3.19,0,0,1-1.38-1.39L67,67.13l.42-.42c0-.31-.08-.63-.1-1,0-.65-.09-1.5-.11-2.52,0-1.31-.11-2.28-.17-2.9V59.18c.07-3.52.16-6.43.27-8.64a53.41,53.41,0,0,1,.64-6.28l.08-.45.29-.36A2.26,2.26,0,0,1,70,42.59l.19-.18,1.05.35.31.12h.73l.53.62a2.91,2.91,0,0,0,.3.31h.73a11.17,11.17,0,0,1,2.3.19h0a3,3,0,0,1,.52,0h0a7.64,7.64,0,0,1,4.17,2.21,5.72,5.72,0,0,1,1.32,4.21c0,.85,0,1.63-.11,2.34l0,.32-.09.17a.2.2,0,0,1,0,.07,3.16,3.16,0,0,1-.2.75v.66l-.41.4A4.72,4.72,0,0,1,81,56a2.35,2.35,0,0,0-.19.37l-.18.53-.25.18-.14.42-.48.27-.07.11a4.65,4.65,0,0,1-.85,1l-.17.13-.19.09,0,0-.29.5-.54.2-.55.87-.63-.11-.49.33h-.18l-.85,1.71-.9-.88v.77c0,1,0,1.74.07,2.23l.07.82.66,1.31-.94.19,0,.4-.55.22a2.77,2.77,0,0,1-.24.72l-.06.14.43,1.71L72.31,70l-.15.32Zm2.89-20.67c-.09.91-.15,1.92-.2,3s-.1,2.12-.13,3.13l.15-.1s.09-.07.38-.29a7.62,7.62,0,0,0,.65-.55,1.1,1.1,0,0,0,.27-.34l.4-.75.3-.05,0,0a10.91,10.91,0,0,0,.84-1.61,4.17,4.17,0,0,0,.28-1.5V50C76.87,49.29,75.51,49.13,74.41,49.13Z"/><path class="cls-3" d="M71.47,44.67c.15.16.3.32.47.48a5.22,5.22,0,0,1,.46.48c.31,0,.8,0,1.46,0a8,8,0,0,1,2.14.22,1.09,1.09,0,0,1,.36,0,5.78,5.78,0,0,1,3.24,1.71,4.06,4.06,0,0,1,.82,3,20,20,0,0,1-.1,2.14,1.81,1.81,0,0,0-.13.5,1.09,1.09,0,0,1-.19.53.22.22,0,0,1,0,.16A.37.37,0,0,0,80,54v.08a.48.48,0,0,0-.12.16,1,1,0,0,1-.13.16,2.2,2.2,0,0,1-.28.73,3.11,3.11,0,0,0-.32.66.93.93,0,0,0-.36.5,1.82,1.82,0,0,0-.55.58,2.89,2.89,0,0,1-.49.59,1.75,1.75,0,0,0-.78.68,1.46,1.46,0,0,0-.75.57.57.57,0,0,0-.44.14c-.16.12-.27.21-.34.25a.85.85,0,0,0-.36.11.85.85,0,0,1-.32.11l-.18.14a.37.37,0,0,0-.14.14l-.07-.07a.11.11,0,0,0-.11,0,4.2,4.2,0,0,1-1.07.59c-.45.18-.77.31-1,.41,0,.47,0,1.13,0,2,0,1,0,1.84.08,2.39-.12.05-.18.19-.18.43a.73.73,0,0,0,0,.25c-.12,0-.18.12-.18.28l0,.43a.51.51,0,0,0-.27.3,2.12,2.12,0,0,0-.12.56,1.62,1.62,0,0,1-.11.46c-.09-.07-.16-.06-.2,0s-.08.15-.16.15-.13,0-.1.14a1.59,1.59,0,0,0-.59.07,5.06,5.06,0,0,1-.7.14,1.44,1.44,0,0,1-.6-.64l.14-.14a11,11,0,0,1-.25-1.69c0-.63-.08-1.45-.11-2.45,0-1.35-.1-2.36-.17-3v-.92q.11-5.28.26-8.6a51.89,51.89,0,0,1,.63-6.06.46.46,0,0,1,.39-.18.71.71,0,0,1,.28.06.92.92,0,0,0,.25.05.12.12,0,0,0,.11,0l.29.13a.83.83,0,0,0,.39.09Zm.72,13.73A6.42,6.42,0,0,0,73,58a2.66,2.66,0,0,1,.82-.36.08.08,0,0,0,0-.1s0-.08,0-.08a.07.07,0,0,1,0,0,.1.1,0,0,0,.09,0,8.34,8.34,0,0,1,1.18-.9c.07,0,.23-.16.48-.35s.5-.41.77-.64a3.36,3.36,0,0,0,.64-.82.44.44,0,0,0,.28-.24.54.54,0,0,1,.22-.23,12.84,12.84,0,0,0,1.16-2.16A5.93,5.93,0,0,0,79.18,50l0-.54c-.62-1.42-2.2-2.14-4.74-2.14-.41,0-.94,0-1.61.07-.16,1.29-.29,2.84-.37,4.67s-.15,3.55-.2,5.14Zm1.46-.75s0,0,0,0,0,0,0,0S73.6,57.65,73.65,57.65Z"/><path class="cls-1" d="M85.28,69.8l-.6-.12h0a8.93,8.93,0,0,1-.92.19l-.54.07-.48-.25a3.16,3.16,0,0,1-1.39-1.39l-.62-1.17.41-.42c0-.31-.08-.63-.1-1,0-.65-.09-1.5-.11-2.52,0-1.31-.1-2.28-.17-2.9V59.18c.07-3.52.16-6.43.27-8.64a53.3,53.3,0,0,1,.65-6.28l.07-.45.29-.36a2.28,2.28,0,0,1,1.76-.86l.19-.18,1,.35.31.12h.73l.54.62c.09.11.19.21.29.31h.74a11.13,11.13,0,0,1,2.29.19h0a3.17,3.17,0,0,1,.53,0h0a7.64,7.64,0,0,1,4.17,2.21A5.72,5.72,0,0,1,96,50.48a21,21,0,0,1-.12,2.34l0,.32-.08.17a.64.64,0,0,0,0,.07,2.74,2.74,0,0,1-.2.75v.66l-.4.4a5.87,5.87,0,0,1-.36.78c-.13.24-.18.34-.19.37l-.18.53-.25.18-.14.42-.47.27-.08.11a4.65,4.65,0,0,1-.85,1l-.16.13-.2.09,0,0-.29.5-.54.2-.55.87-.63-.11-.49.33h-.18l-.85,1.71-.9-.88v.77c0,1,0,1.74.07,2.23l.07.82.66,1.31-.94.19,0,.4-.55.22a2.77,2.77,0,0,1-.24.72l-.06.14.43,1.71L86.08,70l-.16.32Zm2.89-20.67c-.08.91-.15,1.92-.2,3s-.09,2.12-.13,3.13l.15-.1.39-.29c.2-.16.42-.34.65-.55A1.27,1.27,0,0,0,89.3,54l.4-.75.29-.05,0,0a10,10,0,0,0,.84-1.61,4.17,4.17,0,0,0,.28-1.5V50C90.63,49.29,89.27,49.13,88.17,49.13Z"/><path class="cls-3" d="M85.24,44.67c.14.16.29.32.46.48a4.16,4.16,0,0,1,.46.48c.31,0,.8,0,1.47,0a8.07,8.07,0,0,1,2.14.22,1,1,0,0,1,.35,0,5.84,5.84,0,0,1,3.25,1.71,4.11,4.11,0,0,1,.82,3,19.82,19.82,0,0,1-.11,2.14,1.56,1.56,0,0,0-.12.5,1.2,1.2,0,0,1-.2.53.22.22,0,0,1,0,.16.62.62,0,0,0,0,.16v.08a.67.67,0,0,0-.12.16,1,1,0,0,1-.13.16,2.2,2.2,0,0,1-.28.73,3.11,3.11,0,0,0-.32.66.93.93,0,0,0-.36.5,1.82,1.82,0,0,0-.55.58,2.63,2.63,0,0,1-.48.59,1.72,1.72,0,0,0-.79.68,1.46,1.46,0,0,0-.75.57.57.57,0,0,0-.44.14c-.16.12-.27.21-.34.25a.9.9,0,0,0-.36.11.85.85,0,0,1-.32.11,1.63,1.63,0,0,1-.18.14.37.37,0,0,0-.14.14l-.07-.07s-.06,0-.11,0a4.2,4.2,0,0,1-1.07.59c-.45.18-.77.31-1,.41,0,.47,0,1.13,0,2,0,1,0,1.84.07,2.39-.12.05-.18.19-.18.43a.73.73,0,0,0,0,.25c-.11,0-.17.12-.17.28l0,.43a.51.51,0,0,0-.27.3,2.6,2.6,0,0,0-.12.56,1.34,1.34,0,0,1-.11.46c-.09-.07-.16-.06-.19,0s-.09.15-.16.15-.13,0-.11.14a1.59,1.59,0,0,0-.59.07,5,5,0,0,1-.69.14,1.46,1.46,0,0,1-.61-.64l.14-.14a11,11,0,0,1-.25-1.69c0-.63-.08-1.45-.1-2.45q-.08-2-.18-3v-.92q.1-5.28.26-8.6a51.89,51.89,0,0,1,.63-6.06.46.46,0,0,1,.39-.18.75.75,0,0,1,.29.06.79.79,0,0,0,.25.05.12.12,0,0,0,.1,0l.29.13a.86.86,0,0,0,.39.09ZM86,58.4a5.85,5.85,0,0,0,.82-.36,2.66,2.66,0,0,1,.82-.36s.07-.06,0-.1,0-.08,0-.08,0,0,.06,0a.09.09,0,0,0,.08,0,8.34,8.34,0,0,1,1.18-.9c.07,0,.23-.16.48-.35s.51-.41.77-.64a3.36,3.36,0,0,0,.64-.82.48.48,0,0,0,.29-.24.48.48,0,0,1,.21-.23,12.15,12.15,0,0,0,1.16-2.16A5.93,5.93,0,0,0,92.94,50l0-.54c-.62-1.42-2.2-2.14-4.74-2.14-.4,0-.94,0-1.6.07-.17,1.29-.29,2.84-.38,4.67S86,55.63,86,57.22Zm1.46-.75s0,0,0,0,0,0,0,0S87.36,57.65,87.41,57.65Z"/></svg>